Patient4_TMGait_0pt6_02_right_04_GRF.mot
version=1
nRows=52
nColumns=19
inDegrees=no
endheader
time	F1x	F1y	F1z	M1x	M1y	M1z	F2x	F2y	F2z	M2x	M2y	M2z	EC1x	EC1y	EC1z	EC2x	EC2y	EC2z
4.16	-37.7259	752.6478	91.4711	-263.9808	-96.8499	736.3133	-4.0338	-6.9571	-2.6992	-0.19945	2.8032	-5.1588	-0.0592	0.0182	-0.0073	-0.0462	0.0165	0.9585
4.173	-29.7707	737.5705	85.1732	-258.6483	-88.6658	719.6357	-3.0364	-3.8644	-1.7726	0.16389	1.9627	-2.4841	-0.0592	0.0182	-0.0073	-0.0462	0.0165	0.9585
4.186	-22.3785	722.5285	79.2256	-253.3739	-80.8143	702.032	-2.1705	-1.2131	-1.0237	0.48685	1.2751	-0.21551	-0.0592	0.0182	-0.0073	-0.0462	0.0165	0.9585
4.199	-15.9304	709.1605	73.8273	-248.7897	-73.596	685.1178	-1.4896	0.83965	-0.47556	0.74671	0.76602	1.5231	-0.0592	0.0182	-0.0073	-0.0462	0.0165	0.9585
4.212	-10.4874	698.8101	69.0363	-245.4101	-67.1035	670.2908	-1.018	2.2979	-0.11159	0.94065	0.43374	2.7499	-0.0592	0.0182	-0.0073	-0.0462	0.0165	0.9585
4.225	-5.8809	692.3549	64.8181	-243.5623	-61.2909	658.505	-0.73112	3.2277	0.10417	1.0725	0.25252	3.516	-0.0592	0.0182	-0.0073	-0.0462	0.0165	0.9585
4.238	-1.8639	690.126	61.1713	-243.3523	-56.1113	650.2071	-0.60593	3.7335	0.20273	1.15	0.19783	3.9197	-0.0592	0.0182	-0.0073	-0.0462	0.0165	0.9585
4.251	1.8404	691.9292	58.0885	-244.6809	-51.4956	645.3431	-0.60381	3.9066	0.21848	1.1759	0.23427	4.0376	-0.0592	0.0182	-0.0073	-0.0462	0.0165	0.9585
4.264	5.464	697.1814	55.591	-247.2969	-47.4066	643.4832	-0.70179	3.7966	0.17254	1.1402	0.33651	3.8986	-0.0592	0.0182	-0.0073	-0.0462	0.0165	0.9585
4.277	9.1308	705.0498	53.669	-250.8558	-43.8058	643.9709	-0.88294	3.4202	0.087381	1.0252	0.48372	3.4966	-0.0592	0.0182	-0.0073	-0.0462	0.0165	0.9585
4.29	12.8489	714.5623	52.2954	-254.967	-40.6743	646.02	-1.1106	2.747	-0.026226	0.80402	0.66277	2.7803	-0.0592	0.0182	-0.0073	-0.0462	0.0165	0.9585
4.303	16.5528	724.7727	51.4161	-259.2533	-37.9929	648.8638	-1.3543	1.7269	-0.15681	0.44734	0.85636	1.7015	-0.0592	0.0182	-0.0073	-0.0462	0.0165	0.9585
4.316	20.1672	734.8204	50.9737	-263.3778	-35.7415	651.7905	-1.5507	0.30744	-0.29228	-0.070242	1.0339	0.20026	-0.0592	0.0182	-0.0073	-0.0462	0.0165	0.9585
4.329	23.6179	743.9946	50.9046	-267.0691	-33.8895	654.2127	-1.6342	-1.5085	-0.41525	-0.75219	1.1567	-1.7179	-0.0592	0.0182	-0.0073	-0.0462	0.0165	0.9585
4.342	26.8874	751.8047	51.1436	-270.1416	-32.3929	655.7124	-1.5002	-3.6445	-0.49918	-1.5684	1.1613	-3.9931	-0.0592	0.0182	-0.0073	-0.0462	0.0165	0.9585
4.355	29.9867	757.9463	51.6256	-272.48	-31.1939	656.0264	-1.0282	-5.8612	-0.50216	-2.4235	0.95511	-6.3769	-0.0592	0.0182	-0.0073	-0.0462	0.0165	0.9585
4.368	32.9659	762.2209	52.2923	-274.014	-30.2244	654.9719	-0.062243	-7.6954	-0.37184	-3.1319	0.41824	-8.376	-0.0592	0.0182	-0.0073	-0.0462	0.0165	0.9585
4.381	35.8813	764.5058	53.0913	-274.7039	-29.4123	652.427	1.5599	-8.369	-0.038912	-3.3832	-0.58753	-9.1522	-0.0592	0.0182	-0.0073	-0.0462	0.0165	0.9585
4.394	38.8154	764.825	53.9844	-274.5657	-28.6891	648.3918	3.9687	-6.7283	0.57624	-2.7188	-2.1928	-7.461	-0.0592	0.0182	-0.0073	-0.0462	0.0165	0.9585
4.407	41.8632	763.3952	54.9394	-273.6877	-27.9873	643.014	7.214	-1.2203	1.5477	-0.52337	-4.4893	-1.6296	-0.0592	0.0182	-0.0073	-0.0462	0.0165	0.9585
4.42	45.1189	760.5633	55.9315	-272.2042	-27.2493	636.5467	11.1528	10.0453	2.9202	3.9469	-7.4627	10.4134	-0.0592	0.0182	-0.0073	-0.0462	0.0165	0.9585
4.433	48.6443	756.5212	56.9101	-270.2013	-26.4064	629.1304	15.3552	29.0588	4.6852	11.4742	-10.9252	30.8647	-0.0592	0.0182	-0.0073	-0.0462	0.0165	0.9585
4.446	52.4537	751.0047	57.7671	-267.6141	-25.3674	620.5719	18.9311	57.5034	6.7148	22.714	-14.3844	61.6159	-0.0592	0.0182	-0.0073	-0.0462	0.0165	0.9585
4.459	56.4889	743.1098	58.298	-264.1622	-23.9964	610.1863	20.4291	96.0718	8.7135	37.9273	-16.9533	103.5041	-0.0592	0.0182	-0.0073	-0.0462	0.0165	0.9585
4.472	60.5841	731.2873	58.2187	-259.3415	-22.1459	596.8062	18.0508	143.7802	10.2528	56.7089	-17.4738	155.5852	-0.0592	0.0182	-0.0073	-0.0462	0.0165	0.9585
4.485	64.4481	713.563	57.1824	-252.5011	-19.6707	578.9486	10.8248	197.7084	10.7845	77.8722	-14.9738	214.7737	-0.0592	0.0182	-0.0073	-0.0462	0.0165	0.9585
4.498	67.6478	687.9456	54.9063	-242.9793	-16.5337	555.1437	-0.17797	253.0358	9.6192	99.4746	-9.1387	275.8024	-0.0592	0.0182	-0.0073	-0.0462	0.0165	0.9585
4.511	69.6685	652.8791	51.254	-230.2544	-12.8398	524.2669	-12.5066	304.1164	6.5481	119.2899	-0.74093	332.2561	-0.0592	0.0182	-0.0073	-0.0462	0.0165	0.9585
4.524	70.0154	607.667	46.3395	-214.0833	-8.8724	485.8679	-23.9056	346.9922	2.0805	135.7863	8.727	379.4905	-0.0592	0.0182	-0.0073	-0.0462	0.0165	0.9585
4.537	68.3435	552.7822	40.4899	-194.6107	-5.0096	440.3899	-33.1239	381.0497	-3.0377	148.7602	17.9394	416.6111	-0.0592	0.0182	-0.0073	-0.0462	0.0165	0.9585
4.55	64.4876	489.9293	34.1781	-172.3998	-1.6629	389.2073	-39.9337	408.6846	-8.1533	159.1856	26.0993	446.127	-0.0592	0.0182	-0.0073	-0.0462	0.0165	0.9585
4.563	58.4871	421.8929	27.8551	-148.3956	0.85888	334.4852	-44.7041	433.7955	-12.8181	168.6187	32.8943	472.1946	-0.0592	0.0182	-0.0073	-0.0462	0.0165	0.9585
4.576	50.587	352.2107	21.9105	-123.8196	2.3679	278.9462	-47.9661	460.4002	-16.9738	178.6473	38.4984	499.0535	-0.0592	0.0182	-0.0073	-0.0462	0.0165	0.9585
4.589	41.3239	284.6554	16.6136	-99.9908	2.8741	225.4442	-50.2161	491.6907	-20.7802	190.5095	43.3009	530.0592	-0.0592	0.0182	-0.0073	-0.0462	0.0165	0.9585
4.602	31.4742	222.5633	12.1441	-78.0867	2.5426	176.4588	-51.7782	529.1893	-24.5764	204.7725	47.8028	566.797	-0.0592	0.0182	-0.0073	-0.0462	0.0165	0.9585
4.615	21.9108	168.246	8.5835	-58.9288	1.6452	133.6792	-52.8961	572.3418	-28.6857	221.1851	52.4384	608.7007	-0.0592	0.0182	-0.0073	-0.0462	0.0165	0.9585
4.628	13.3965	122.7216	5.923	-42.8851	0.47293	97.8119	-53.708	618.8378	-33.2783	238.8218	57.4294	653.4036	-0.0592	0.0182	-0.0073	-0.0462	0.0165	0.9585
4.641	6.4055	85.8982	4.0473	-29.9281	-0.71108	68.7443	-54.2863	665.5217	-38.2632	256.4414	62.692	697.7144	-0.0592	0.0182	-0.0073	-0.0462	0.0165	0.9585
4.654	1.1455	56.9948	2.7725	-19.7848	-1.6923	45.8587	-54.6669	709.1614	-43.3429	272.7896	67.9124	738.4185	-0.0592	0.0182	-0.0073	-0.0462	0.0165	0.9585
4.667	-2.3933	34.9988	1.8886	-12.0934	-2.3174	28.3906	-54.8134	746.9362	-48.1353	286.7852	72.6703	772.7592	-0.0592	0.0182	-0.0073	-0.0462	0.0165	0.9585
4.68	-4.3108	18.8706	1.2221	-6.4819	-2.5054	15.5359	-54.646	776.7073	-52.3043	297.6184	76.584	798.701	-0.0592	0.0182	-0.0073	-0.0462	0.0165	0.9585
4.693	-4.8297	7.6663	0.67959	-2.6073	-2.2827	6.5667	-54.0486	797.1544	-55.623	304.8034	79.3839	815.0338	-0.0592	0.0182	-0.0073	-0.0462	0.0165	0.9585
4.706	-4.3893	0.54451	0.24249	-0.16339	-1.8002	0.82561	-52.9334	807.8884	-57.9741	308.2179	80.9312	821.4896	-0.0592	0.0182	-0.0073	-0.0462	0.0165	0.9585
4.719	-3.5	-3.3859	-0.06866	1.1709	-1.2553	-2.3713	-51.2397	809.4739	-59.3229	308.1106	81.1921	818.7378	-0.0592	0.0182	-0.0073	-0.0462	0.0165	0.9585
4.732	-2.4914	-5.0534	-0.26945	1.7234	-0.75216	-3.7486	-48.967	803.4034	-59.7135	305.0855	80.2358	808.3508	-0.0592	0.0182	-0.0073	-0.0462	0.0165	0.9585
4.745	-1.5556	-5.2688	-0.37832	1.7789	-0.34275	-3.9561	-46.1751	791.9151	-59.2612	300.029	78.2246	792.6046	-0.0592	0.0182	-0.0073	-0.0462	0.0165	0.9585
4.758	-0.79215	-4.6651	-0.42674	1.5574	-0.033217	-3.4971	-42.9645	777.5664	-58.16	293.942	75.4104	774.0498	-0.0592	0.0182	-0.0073	-0.0462	0.0165	0.9585
4.771	-0.2201	-3.7035	-0.42991	1.2193	0.18174	-2.747	-39.4943	762.8251	-56.6218	287.7789	72.0798	755.1285	-0.0592	0.0182	-0.0073	-0.0462	0.0165	0.9585
4.784	0.16489	-2.6689	-0.40951	0.8631	0.31579	-1.9149	-35.9382	749.763	-54.8419	282.333	68.5032	737.866	-0.0592	0.0182	-0.0073	-0.0462	0.0165	0.9585
4.797	0.41197	-1.7299	-0.37262	0.54395	0.38381	-1.1483	-32.4887	739.896	-52.9727	278.1705	64.907	723.7388	-0.0592	0.0182	-0.0073	-0.0462	0.0165	0.9585
4.81	0.55435	-0.95712	-0.33016	0.28372	0.40417	-0.50192	-29.3075	734.0431	-51.1338	275.5796	61.4702	713.5317	-0.0592	0.0182	-0.0073	-0.0462	0.0165	0.9585
4.823	0.62387	-0.36994	-0.29137	0.087576	0.39841	0.0028678	-26.5284	732.3136	-49.4294	274.5673	58.3407	707.3514	-0.0592	0.0182	-0.0073	-0.0462	0.0165	0.9585
